<svg xmlns="http://www.w3.org/2000/svg" viewBox="0 0 122.88 87.69" style="enable-background:new 0 0 122.88 87.69" xml:space="preserve"><path d="M52.8 74.65c3.3 9.72 17.1 10.07 20.2 0 3.65 3.29 14.46 3.94 18.48 6.19 1.27.71 2.42 1.61 3.34 2.83.62.82 1.45 2.33 2.07 4.02H28.9c.63-1.69 1.45-3.2 2.07-4.02.92-1.22 2.07-2.12 3.34-2.83 4.03-2.24 14.84-2.9 18.49-6.19zM50.51 0H75.3c1.07 0 1.94.87 1.94 1.94v17.41c0 1.07-.87 1.94-1.94 1.94H50.51c-1.07 0-1.94-.87-1.94-1.94V1.94c0-1.07.87-1.94 1.94-1.94zm25.58 5.43H49.8v14.11c0 .15.06.28.16.38.1.1.23.16.38.16h25.21c.15 0 .28-.06.38-.16.1-.1.16-.23.16-.38V5.43zm-2.64-3.25a.96.96 0 1 1 0 1.92.96.96 0 0 1 0-1.92zm-6.5 0a.96.96 0 1 1 0 1.92.96.96 0 0 1 0-1.92zm3.25 0a.96.96 0 1 1 0 1.92.96.96 0 0 1 0-1.92zm-10.84 9.2-3.16 1.19 3.16 1.2v2.78l-4.91-2.78v-2.39l4.91-2.78v2.78zm12 0v2.39l-4.91 2.78v-2.78l3.16-1.2-3.16-1.19V8.59l4.91 2.79zm-8.51 5.95h-2.09l2.58-10.06h2.09l-2.58 10.06zm57.04 38.31c.04 0 .08 0 .12.01.25-.44.48-.91.7-1.4.01-.01.01-.02.02-.02.31-.75.56-1.52.71-2.32.12-.62.21-1.26.23-1.91h-3.76c-.07 1.91-.64 3.79-1.7 5.64h3.68zm-.65 1.2h-3.78c-1.15 1.67-2.7 3.31-4.63 4.93.3-.04.61-.09.9-.15.81-.16 1.59-.4 2.35-.73.76-.33 1.48-.71 2.14-1.16a12.014 12.014 0 0 0 3.02-2.89zm-11.64 4.93c-1.94-1.62-3.49-3.26-4.63-4.93h-3.78c.36.49.76.95 1.2 1.39.57.57 1.17 1.07 1.84 1.51.66.44 1.37.83 2.14 1.16.01.01.02.01.02.02.75.31 1.52.56 2.32.71.29.05.59.09.89.14zm-9.2-6.13h3.81c-1.06-1.85-1.63-3.74-1.7-5.64h-3.76c.03.66.11 1.29.23 1.91.16.81.4 1.59.73 2.35.2.48.43.94.69 1.38zm-1.65-6.84h3.78c.14-1.87.76-3.75 1.87-5.64h-4c-.25.44-.48.9-.69 1.39-.01.01-.01.02-.02.02-.31.75-.56 1.52-.71 2.32-.13.62-.21 1.25-.23 1.91zm2.43-6.84h3.99c1.14-1.64 2.64-3.29 4.51-4.95-.34.04-.66.09-.98.16-.81.16-1.59.4-2.35.73-.76.33-1.48.71-2.14 1.16a12.014 12.014 0 0 0-3.03 2.9zm11.55-4.95c1.88 1.66 3.38 3.31 4.51 4.95h3.99c-.36-.49-.76-.95-1.2-1.39-.57-.57-1.17-1.07-1.84-1.51-.66-.44-1.37-.83-2.14-1.16-.01-.01-.02-.01-.02-.02-.75-.31-1.52-.56-2.32-.71-.32-.06-.65-.11-.98-.16zm9.29 6.15h-4c1.11 1.89 1.73 3.77 1.87 5.64h3.78c-.03-.66-.11-1.29-.23-1.91-.16-.81-.4-1.59-.73-2.35-.21-.48-.44-.94-.69-1.38zm-13.56-7.17c.89-.18 1.8-.27 2.75-.27.94 0 1.85.09 2.75.27.88.17 1.72.43 2.55.79.01 0 .02.01.03.02.82.35 1.6.78 2.33 1.26s1.4 1.04 2.02 1.66c.62.62 1.17 1.29 1.66 2.02s.91 1.51 1.26 2.33c.36.84.62 1.7.8 2.58.18.89.27 1.8.27 2.75 0 .94-.09 1.85-.27 2.75-.17.88-.43 1.72-.79 2.55 0 .01-.01.02-.02.03-.35.83-.78 1.6-1.26 2.33s-1.04 1.4-1.66 2.02c-.62.62-1.29 1.17-2.02 1.66s-1.51.91-2.33 1.26c-.84.36-1.7.62-2.58.8-.89.18-1.8.27-2.75.27-.94 0-1.85-.09-2.75-.27-.88-.17-1.72-.43-2.55-.79-.01 0-.02-.01-.03-.02-.82-.35-1.6-.78-2.33-1.26s-1.4-1.04-2.02-1.66c-.62-.62-1.17-1.29-1.66-2.02s-.91-1.51-1.26-2.33c-.36-.84-.62-1.7-.8-2.58-.18-.89-.27-1.8-.27-2.75 0-.94.09-1.85.27-2.75.17-.88.43-1.72.79-2.55 0-.01.01-.02.02-.03.35-.83.78-1.6 1.26-2.33s1.04-1.4 1.66-2.02c.62-.62 1.29-1.17 2.02-1.66s1.51-.91 2.33-1.26c.83-.35 1.69-.61 2.58-.8zm3.35 1.8v4.17h3.97c-1.05-1.38-2.37-2.77-3.97-4.17zm0 5.37v5.64h6.88c-.16-1.85-.85-3.73-2.08-5.64h-4.8zm0 6.84v5.64h5.01c1.19-1.87 1.82-3.75 1.89-5.64h-6.9zm0 6.84v4.22c1.7-1.39 3.09-2.8 4.17-4.22h-4.17zm-1.2 4.21v-4.22h-4.17c1.07 1.42 2.46 2.83 4.17 4.22zm0-5.41V50h-6.91c.07 1.89.71 3.77 1.89 5.64h5.02zm0-6.84v-5.64h-4.81c-1.23 1.91-1.92 3.79-2.07 5.64h6.88zm0-6.84v-4.17c-1.61 1.4-2.93 2.79-3.97 4.17h3.97zM9.43 49.4 5 42.97c.78-.94 1.46-1.94 2.05-2.99.61-1.09 1.12-2.23 1.56-3.42l7.8.75L9.43 49.4zm1.46.88 7.01-12.15 12.09 6.98-.96 1.66-9.62-5.55c-.52-.3-1.2-.12-1.5.4-.3.52-.12 1.2.4 1.5l9.62 5.55-.9 1.55-9.62-5.55c-.52-.3-1.2-.12-1.5.4-.3.52-.12 1.2.4 1.5l9.62 5.55-.9 1.55-9.62-5.55c-.52-.3-1.2-.12-1.5.4-.3.52-.12 1.2.4 1.5l9.62 5.55-.96 1.66-12.08-6.95zm-7.41-9.5L0 35.73l5.97.58c-.34.84-.72 1.65-1.15 2.42-.39.72-.84 1.4-1.34 2.05zm13.89 43.38c.51 1.14 0 2.48-1.15 2.99-1.14.51-2.48 0-2.99-1.15a53.112 53.112 0 0 1-3.07-8.84c-.75-2.99-1.25-6.09-1.48-9.26-.09-1.25.85-2.34 2.11-2.43 1.25-.09 2.34.85 2.43 2.11.21 2.9.67 5.73 1.35 8.47.7 2.83 1.65 5.53 2.8 8.11zM26.91 30c-.93.83-2.36.75-3.2-.18-.83-.93-.75-2.36.18-3.2 2.12-1.89 4.6-3.83 7.16-5.5 2.3-1.5 4.67-2.79 6.93-3.67 1.17-.45 2.48.13 2.93 1.3.45 1.17-.13 2.48-1.3 2.93-1.95.75-4.04 1.9-6.1 3.24a56.902 56.902 0 0 0-6.6 5.08zm58.79-9.61a2.267 2.267 0 0 1 2.29-3.91c2.54 1.48 4.95 3.18 7.2 5.05 2.27 1.88 4.38 3.95 6.3 6.16.82.95.72 2.38-.23 3.2-.95.82-2.38.72-3.2-.23-1.77-2.04-3.7-3.93-5.76-5.65-2.06-1.7-4.27-3.25-6.6-4.62zm25.16 50.18c.16-1.24 1.3-2.12 2.54-1.95s2.12 1.3 1.95 2.54c-.34 2.56-.85 5.05-1.53 7.45a53.72 53.72 0 0 1-2.57 7.15 2.264 2.264 0 0 1-2.99 1.16 2.264 2.264 0 0 1-1.16-2.99c.94-2.12 1.73-4.3 2.36-6.54.62-2.23 1.1-4.51 1.4-6.82zM50.27 54.51c-.69.03-1.22.17-1.57.41-.2.14-.35.31-.45.52-.11.23-.16.51-.15.84.03.95.53 2.19 1.49 3.62l.01.02 3.12 4.97c1.25 1.99 2.57 4.02 4.2 5.51 1.57 1.43 3.47 2.41 5.99 2.41 2.73.01 4.72-1 6.34-2.52 1.68-1.58 3.01-3.74 4.32-5.89l3.52-5.8c.66-1.5.89-2.5.74-3.09-.09-.35-.48-.52-1.13-.55-.14-.01-.28-.01-.43 0-.16 0-.32.02-.49.03-.09.01-.18 0-.27-.02-.31.02-.64 0-.96-.05l1.21-4.84c-8.94 1.41-15.63-5.23-25.08-1.33l.68 5.79c-.4.04-.76.02-1.09-.03zm27.63-1.12c.87.26 1.42.81 1.65 1.7.25.98-.02 2.37-.86 4.27-.02.03-.03.07-.05.1l-3.56 5.86c-1.37 2.26-2.77 4.52-4.62 6.27-1.93 1.8-4.3 3-7.54 2.99-3.03-.01-5.31-1.17-7.18-2.88-1.81-1.65-3.19-3.79-4.5-5.87l-3.12-4.97c-1.14-1.7-1.74-3.26-1.77-4.54-.02-.6.08-1.15.31-1.63.23-.5.59-.92 1.07-1.25.23-.15.48-.28.76-.39-.2-2.69-.28-5.59-.15-8.43.07-.67.2-1.35.39-2.02.8-2.85 2.8-4.16 5.28-5.73 1.37-.87 2.86-1.53 4.43-1.97.99-.28-.84-3.45.18-3.56 4.96-.51 12.98 4.02 16.45 7.76 1.73 1.88 2.82 3.37 3.06 6.66l-.23 7.63z" style="fill-rule:evenodd;clip-rule:evenodd"/></svg>